<svg width="68" height="37" viewBox="0 0 68 37" fill="none" xmlns="http:/www.w3.org/2000/svg">
<path d="M20.5625 18H15.3037V10.7295H20.5625V12.1357H17.1689V13.3906H20.3184V14.7969H17.1689V16.5938H20.5625V18ZM27.5498 18H25.7822V15.2803C25.7822 15.0589 25.7708 14.8392 25.748 14.6211C25.7253 14.3997 25.6862 14.237 25.6309 14.1328C25.5658 14.0124 25.4697 13.9245 25.3428 13.8691C25.2191 13.8138 25.0449 13.7861 24.8203 13.7861C24.6608 13.7861 24.498 13.8122 24.332 13.8643C24.1693 13.9163 23.9919 13.9993 23.7998 14.1133V18H22.042V12.5166H23.7998V13.1221C24.1123 12.8779 24.4118 12.6908 24.6982 12.5605C24.988 12.4303 25.3086 12.3652 25.6602 12.3652C26.2526 12.3652 26.7148 12.5378 27.0469 12.8828C27.3822 13.2279 27.5498 13.7438 27.5498 14.4307V18ZM34.3467 18H32.5889V10.4023H34.3467V18ZM37.7646 18H36.0068V12.5166H37.7646V18ZM37.8135 11.7354H35.958V10.4023H37.8135V11.7354ZM43.3994 14.1914H43.2432C43.1683 14.1654 43.0479 14.1458 42.8818 14.1328C42.7158 14.1198 42.5775 14.1133 42.4668 14.1133C42.2161 14.1133 41.9948 14.1296 41.8027 14.1621C41.6107 14.1947 41.404 14.25 41.1826 14.3281V18H39.4248V12.5166H41.1826V13.3223C41.57 12.9902 41.9069 12.7705 42.1934 12.6631C42.4798 12.5524 42.7435 12.4971 42.9844 12.4971C43.0462 12.4971 43.1162 12.4987 43.1943 12.502C43.2725 12.5052 43.3408 12.5101 43.3994 12.5166V14.1914ZM49.7959 15.583H45.7725C45.7985 16.0127 45.9613 16.3415 46.2607 16.5693C46.5635 16.7972 47.0078 16.9111 47.5938 16.9111C47.9648 16.9111 48.3245 16.8444 48.6729 16.7109C49.0212 16.5775 49.2962 16.4342 49.498 16.2812H49.6934V17.6924C49.2962 17.8519 48.9219 17.9674 48.5703 18.0391C48.2188 18.1107 47.8298 18.1465 47.4033 18.1465C46.3031 18.1465 45.46 17.8991 44.874 17.4043C44.2881 16.9095 43.9951 16.2048 43.9951 15.29C43.9951 14.3851 44.2718 13.6689 44.8252 13.1416C45.3818 12.611 46.1436 12.3457 47.1104 12.3457C48.0023 12.3457 48.6729 12.5719 49.1221 13.0244C49.5713 13.4736 49.7959 14.1214 49.7959 14.9678V15.583ZM48.0479 14.5527C48.0381 14.1849 47.9469 13.9082 47.7744 13.7227C47.6019 13.5371 47.3333 13.4443 46.9688 13.4443C46.6302 13.4443 46.3519 13.5322 46.1338 13.708C45.9157 13.8838 45.7936 14.1654 45.7676 14.5527H48.0479ZM23.3945 25.1826C23.3945 25.6351 23.3245 26.0469 23.1846 26.418C23.0479 26.7891 22.8672 27.0951 22.6426 27.3359C22.4082 27.5898 22.1429 27.7819 21.8467 27.9121C21.5505 28.0423 21.2331 28.1074 20.8945 28.1074C20.582 28.1074 20.3167 28.0732 20.0986 28.0049C19.8805 27.9398 19.6576 27.847 19.4297 27.7266V30.0117H17.6719V22.5166H19.4297V23.0879C19.6999 22.873 19.9749 22.6989 20.2549 22.5654C20.5381 22.432 20.8636 22.3652 21.2314 22.3652C21.915 22.3652 22.4456 22.6159 22.8232 23.1172C23.2041 23.6185 23.3945 24.307 23.3945 25.1826ZM21.583 25.2168C21.583 24.6829 21.4919 24.2956 21.3096 24.0547C21.1273 23.8138 20.8392 23.6934 20.4453 23.6934C20.2793 23.6934 20.1084 23.7194 19.9326 23.7715C19.7568 23.8203 19.5892 23.8919 19.4297 23.9863V26.7451C19.5469 26.7907 19.6722 26.82 19.8057 26.833C19.9391 26.846 20.071 26.8525 20.2012 26.8525C20.6667 26.8525 21.0133 26.7174 21.2412 26.4473C21.4691 26.1738 21.583 25.7637 21.583 25.2168ZM26.4219 28H24.6641V20.4023H26.4219V28ZM33.5459 28H31.7881V27.3945C31.4626 27.6419 31.1647 27.8307 30.8945 27.9609C30.6243 28.0879 30.3021 28.1514 29.9277 28.1514C29.3223 28.1514 28.8551 27.9772 28.5264 27.6289C28.2008 27.2806 28.0381 26.7663 28.0381 26.0859V22.5166H29.8057V25.2363C29.8057 25.513 29.8138 25.7441 29.8301 25.9297C29.8496 26.112 29.8919 26.2633 29.957 26.3838C30.0189 26.5042 30.1117 26.5921 30.2354 26.6475C30.3623 26.7028 30.5381 26.7305 30.7627 26.7305C30.9124 26.7305 31.0785 26.7028 31.2607 26.6475C31.443 26.5921 31.6188 26.5107 31.7881 26.4033V22.5166H33.5459V28ZM39.9766 26.2617C39.9766 26.8281 39.7227 27.2855 39.2148 27.6338C38.707 27.9788 38.012 28.1514 37.1299 28.1514C36.6416 28.1514 36.1989 28.1058 35.8018 28.0146C35.4046 27.9235 35.0856 27.8226 34.8447 27.7119V26.2666H35.0059C35.0938 26.3285 35.1947 26.3968 35.3086 26.4717C35.4258 26.5433 35.5902 26.6214 35.8018 26.7061C35.984 26.7809 36.1908 26.846 36.4219 26.9014C36.653 26.9535 36.9004 26.9795 37.1641 26.9795C37.5091 26.9795 37.7646 26.9421 37.9307 26.8672C38.0967 26.7891 38.1797 26.6751 38.1797 26.5254C38.1797 26.3919 38.1309 26.2959 38.0332 26.2373C37.9355 26.1755 37.75 26.1169 37.4766 26.0615C37.3464 26.0322 37.1689 26.0013 36.9443 25.9688C36.723 25.9329 36.5212 25.8906 36.3389 25.8418C35.8408 25.7116 35.4714 25.5098 35.2305 25.2363C34.9896 24.9596 34.8691 24.6162 34.8691 24.2061C34.8691 23.6787 35.1182 23.2409 35.6162 22.8926C36.1175 22.541 36.8011 22.3652 37.667 22.3652C38.0771 22.3652 38.4694 22.4076 38.8438 22.4922C39.2214 22.5736 39.516 22.6615 39.7275 22.7559V24.1426H39.5762C39.3158 23.9635 39.0179 23.8187 38.6826 23.708C38.3506 23.5941 38.0137 23.5371 37.6719 23.5371C37.3887 23.5371 37.1494 23.5762 36.9541 23.6543C36.762 23.7324 36.666 23.8431 36.666 23.9863C36.666 24.1165 36.71 24.2158 36.7979 24.2842C36.8857 24.3525 37.0924 24.4209 37.418 24.4893C37.597 24.5251 37.7891 24.5609 37.9941 24.5967C38.2025 24.6292 38.4108 24.6715 38.6191 24.7236C39.0814 24.8441 39.4232 25.0345 39.6445 25.2949C39.8659 25.5521 39.9766 25.8743 39.9766 26.2617ZM43.0381 28H41.2119V26.0811H43.0381V28ZM46.6514 28H44.8252V26.0811H46.6514V28ZM50.2646 28H48.4385V26.0811H50.2646V28Z" fill="white"/>
<rect x="1" y="1" width="66" height="35" rx="9" stroke="white" stroke-width="2"/>
</svg>
