<svg width="170" height="35" viewBox="0 0 170 35" fill="none" xmlns="http://www.w3.org/2000/svg">
<path d="M15.5771 13.6143C15.5771 13.3773 15.5285 13.1742 15.4312 13.0049C15.3338 12.8356 15.1667 12.7023 14.9297 12.605C14.7646 12.5373 14.5721 12.4971 14.3521 12.4844C14.132 12.4674 13.876 12.459 13.584 12.459H12.7017V15.0044H13.4507C13.84 15.0044 14.1659 14.9854 14.4282 14.9473C14.6906 14.9092 14.9106 14.8224 15.0884 14.687C15.2576 14.5558 15.3804 14.4119 15.4565 14.2554C15.5369 14.0946 15.5771 13.8809 15.5771 13.6143ZM19.3794 20.1714H16.4023L13.8252 16.7056H12.7017V20.1714H10.2769V10.7197H14.3647C14.9233 10.7197 15.4036 10.7515 15.8057 10.8149C16.2077 10.8784 16.5843 11.016 16.9355 11.2275C17.291 11.4391 17.5724 11.7142 17.7798 12.0527C17.9914 12.387 18.0972 12.8081 18.0972 13.3159C18.0972 14.0142 17.9342 14.5833 17.6084 15.0234C17.2868 15.4635 16.8255 15.8296 16.2246 16.1216L19.3794 20.1714ZM27.3394 17.0293H22.1089C22.1427 17.5879 22.3543 18.0153 22.7437 18.3115C23.1372 18.6077 23.7148 18.7559 24.4766 18.7559C24.959 18.7559 25.4266 18.6691 25.8794 18.4956C26.3322 18.3221 26.6898 18.1359 26.9521 17.937H27.2061V19.7715C26.6898 19.9788 26.2031 20.1291 25.7461 20.2222C25.2891 20.3153 24.7834 20.3618 24.229 20.3618C22.7987 20.3618 21.7026 20.0402 20.9409 19.397C20.1792 18.7537 19.7983 17.8376 19.7983 16.6484C19.7983 15.472 20.158 14.541 20.8774 13.8555C21.6011 13.1657 22.5913 12.8208 23.8481 12.8208C25.0076 12.8208 25.8794 13.1149 26.4634 13.7031C27.0474 14.2871 27.3394 15.1292 27.3394 16.2295V17.0293ZM25.0669 15.6899C25.0542 15.2118 24.9357 14.8521 24.7114 14.6108C24.4871 14.3696 24.138 14.249 23.6641 14.249C23.224 14.249 22.8621 14.3633 22.5786 14.5918C22.2951 14.8203 22.1364 15.1864 22.1025 15.6899H25.0669ZM33.5093 20.1079C33.2638 20.1714 33.0036 20.2201 32.7285 20.2539C32.4535 20.292 32.117 20.311 31.7192 20.311C30.8306 20.311 30.1683 20.1312 29.7324 19.7715C29.3008 19.4118 29.085 18.7961 29.085 17.9243V14.5918H28.1455V13.043H29.085V11.0054H31.3701V13.043H33.5093V14.5918H31.3701V17.1182C31.3701 17.3678 31.3722 17.5858 31.3765 17.772C31.3807 17.9582 31.4146 18.1253 31.478 18.2734C31.5373 18.4215 31.641 18.54 31.7891 18.6289C31.9414 18.7135 32.1615 18.7559 32.4492 18.7559C32.5677 18.7559 32.7222 18.7305 32.9126 18.6797C33.1073 18.6289 33.2427 18.5824 33.3188 18.54H33.5093V20.1079ZM42.1675 16.6104C42.1675 17.7826 41.8247 18.7072 41.1392 19.3843C40.4578 20.0571 39.4993 20.3936 38.2637 20.3936C37.028 20.3936 36.0674 20.0571 35.3818 19.3843C34.7005 18.7072 34.3599 17.7826 34.3599 16.6104C34.3599 15.4297 34.7026 14.5029 35.3882 13.8301C36.078 13.1572 37.0365 12.8208 38.2637 12.8208C39.5078 12.8208 40.4684 13.1593 41.1455 13.8364C41.8268 14.5135 42.1675 15.4382 42.1675 16.6104ZM39.3555 18.3433C39.5036 18.1613 39.6136 17.9434 39.6855 17.6895C39.7617 17.4313 39.7998 17.0758 39.7998 16.623C39.7998 16.2041 39.7617 15.8529 39.6855 15.5693C39.6094 15.2858 39.5036 15.0594 39.3682 14.8901C39.2327 14.7166 39.0698 14.5939 38.8794 14.522C38.689 14.45 38.4837 14.4141 38.2637 14.4141C38.0436 14.4141 37.8468 14.4437 37.6733 14.5029C37.5041 14.5622 37.3411 14.6807 37.1846 14.8584C37.0449 15.0234 36.9328 15.2498 36.8481 15.5376C36.7677 15.8254 36.7275 16.1872 36.7275 16.623C36.7275 17.0124 36.7635 17.3509 36.8354 17.6387C36.9074 17.9222 37.0132 18.1507 37.1528 18.3242C37.2882 18.4893 37.4491 18.6099 37.6353 18.686C37.8257 18.7622 38.0415 18.8003 38.2827 18.8003C38.4901 18.8003 38.6868 18.7664 38.873 18.6987C39.0635 18.6268 39.2243 18.5083 39.3555 18.3433ZM50.9082 20.1714H48.623V19.3843C48.1999 19.7059 47.8127 19.9513 47.4614 20.1206C47.1102 20.2856 46.6912 20.3682 46.2046 20.3682C45.4175 20.3682 44.8102 20.1418 44.3828 19.689C43.9596 19.2362 43.748 18.5675 43.748 17.6831V13.043H46.0459V16.5786C46.0459 16.9383 46.0565 17.2388 46.0776 17.48C46.103 17.717 46.158 17.9137 46.2427 18.0703C46.3231 18.2269 46.4437 18.3411 46.6045 18.4131C46.7695 18.485 46.998 18.521 47.29 18.521C47.4847 18.521 47.7005 18.485 47.9375 18.4131C48.1745 18.3411 48.403 18.2354 48.623 18.0957V13.043H50.9082V20.1714ZM58.2397 15.2202H58.0366C57.9393 15.1864 57.7827 15.161 57.5669 15.144C57.3511 15.1271 57.1712 15.1187 57.0273 15.1187C56.7015 15.1187 56.4137 15.1398 56.1641 15.1821C55.9144 15.2244 55.6457 15.2964 55.3579 15.3979V20.1714H53.0728V13.043H55.3579V14.0903C55.8615 13.6587 56.2995 13.373 56.6719 13.2334C57.0443 13.0895 57.387 13.0176 57.7002 13.0176C57.7806 13.0176 57.8716 13.0197 57.9731 13.0239C58.0747 13.0282 58.1636 13.0345 58.2397 13.043V15.2202ZM66.6948 20.1714H64.397V16.6357C64.397 16.348 64.3822 16.0623 64.3525 15.7788C64.3229 15.491 64.2721 15.2795 64.2002 15.144C64.1156 14.9875 63.9907 14.8732 63.8257 14.8013C63.6649 14.7293 63.4385 14.6934 63.1465 14.6934C62.9391 14.6934 62.7275 14.7272 62.5117 14.7949C62.3001 14.8626 62.0695 14.9705 61.8198 15.1187V20.1714H59.5347V13.043H61.8198V13.8301C62.2261 13.5127 62.6154 13.2694 62.9878 13.1001C63.3644 12.9308 63.7812 12.8462 64.2383 12.8462C65.0085 12.8462 65.6094 13.0705 66.041 13.519C66.4769 13.9676 66.6948 14.6383 66.6948 15.5312V20.1714ZM75.8228 17.0293H70.5923C70.6261 17.5879 70.8377 18.0153 71.2271 18.3115C71.6206 18.6077 72.1982 18.7559 72.96 18.7559C73.4424 18.7559 73.91 18.6691 74.3628 18.4956C74.8156 18.3221 75.1732 18.1359 75.4355 17.937H75.6895V19.7715C75.1732 19.9788 74.6865 20.1291 74.2295 20.2222C73.7725 20.3153 73.2668 20.3618 72.7124 20.3618C71.2821 20.3618 70.186 20.0402 69.4243 19.397C68.6626 18.7537 68.2817 17.8376 68.2817 16.6484C68.2817 15.472 68.6414 14.541 69.3608 13.8555C70.0845 13.1657 71.0747 12.8208 72.3315 12.8208C73.491 12.8208 74.3628 13.1149 74.9468 13.7031C75.5308 14.2871 75.8228 15.1292 75.8228 16.2295V17.0293ZM73.5503 15.6899C73.5376 15.2118 73.4191 14.8521 73.1948 14.6108C72.9705 14.3696 72.6214 14.249 72.1475 14.249C71.7074 14.249 71.3455 14.3633 71.062 14.5918C70.7785 14.8203 70.6198 15.1864 70.5859 15.6899H73.5503ZM82.6021 15.2202H82.3989C82.3016 15.1864 82.145 15.161 81.9292 15.144C81.7134 15.1271 81.5335 15.1187 81.3896 15.1187C81.0638 15.1187 80.776 15.1398 80.5264 15.1821C80.2767 15.2244 80.008 15.2964 79.7202 15.3979V20.1714H77.4351V13.043H79.7202V14.0903C80.2238 13.6587 80.6618 13.373 81.0342 13.2334C81.4066 13.0895 81.7493 13.0176 82.0625 13.0176C82.1429 13.0176 82.2339 13.0197 82.3354 13.0239C82.437 13.0282 82.5259 13.0345 82.6021 13.043V15.2202ZM92.6567 18.3115V16.8262C92.3478 16.8516 92.0135 16.8875 91.6538 16.9341C91.2941 16.9764 91.0212 17.0272 90.835 17.0864C90.6064 17.1584 90.4308 17.2642 90.3081 17.4038C90.1896 17.5392 90.1304 17.7191 90.1304 17.9434C90.1304 18.0915 90.1431 18.2121 90.1685 18.3052C90.1938 18.3983 90.2573 18.4871 90.3589 18.5718C90.4562 18.6564 90.5726 18.7199 90.708 18.7622C90.8434 18.8003 91.055 18.8193 91.3428 18.8193C91.5713 18.8193 91.8019 18.7728 92.0347 18.6797C92.2716 18.5866 92.479 18.4639 92.6567 18.3115ZM92.6567 19.416C92.534 19.5091 92.3817 19.6213 92.1997 19.7524C92.0177 19.8836 91.8464 19.9873 91.6855 20.0635C91.4613 20.165 91.2285 20.2391 90.9873 20.2856C90.7461 20.3364 90.4816 20.3618 90.1938 20.3618C89.5168 20.3618 88.9497 20.1523 88.4927 19.7334C88.0356 19.3145 87.8071 18.7791 87.8071 18.1274C87.8071 17.6069 87.9235 17.1816 88.1562 16.8516C88.389 16.5215 88.7191 16.2612 89.1465 16.0708C89.5697 15.8804 90.0944 15.745 90.7207 15.6646C91.347 15.5841 91.9966 15.5249 92.6694 15.4868V15.4487C92.6694 15.0552 92.5086 14.7843 92.187 14.6362C91.8654 14.4839 91.3914 14.4077 90.7651 14.4077C90.3885 14.4077 89.9865 14.4754 89.5591 14.6108C89.1317 14.742 88.8249 14.8436 88.6387 14.9155H88.4292V13.1953C88.6704 13.1318 89.0618 13.0578 89.6035 12.9731C90.1494 12.8843 90.6953 12.8398 91.2412 12.8398C92.5404 12.8398 93.4777 13.0409 94.0532 13.4429C94.633 13.8407 94.9229 14.467 94.9229 15.3218V20.1714H92.6567V19.416ZM93.1772 12.0273H91.6157L89.3813 9.65967V9.53271H91.6094L93.1772 12.0273ZM103.752 20.1714H101.467V10.2944H103.752V20.1714ZM108.945 10.2944L107.098 14.0332H105.612L106.609 10.2944H108.945ZM114.543 18.3115V16.8262C114.235 16.8516 113.9 16.8875 113.541 16.9341C113.181 16.9764 112.908 17.0272 112.722 17.0864C112.493 17.1584 112.318 17.2642 112.195 17.4038C112.076 17.5392 112.017 17.7191 112.017 17.9434C112.017 18.0915 112.03 18.2121 112.055 18.3052C112.081 18.3983 112.144 18.4871 112.246 18.5718C112.343 18.6564 112.459 18.7199 112.595 18.7622C112.73 18.8003 112.942 18.8193 113.229 18.8193C113.458 18.8193 113.689 18.7728 113.921 18.6797C114.158 18.5866 114.366 18.4639 114.543 18.3115ZM114.543 19.416C114.421 19.5091 114.268 19.6213 114.086 19.7524C113.904 19.8836 113.733 19.9873 113.572 20.0635C113.348 20.165 113.115 20.2391 112.874 20.2856C112.633 20.3364 112.368 20.3618 112.081 20.3618C111.403 20.3618 110.836 20.1523 110.379 19.7334C109.922 19.3145 109.694 18.7791 109.694 18.1274C109.694 17.6069 109.81 17.1816 110.043 16.8516C110.276 16.5215 110.606 16.2612 111.033 16.0708C111.456 15.8804 111.981 15.745 112.607 15.6646C113.234 15.5841 113.883 15.5249 114.556 15.4868V15.4487C114.556 15.0552 114.395 14.7843 114.074 14.6362C113.752 14.4839 113.278 14.4077 112.652 14.4077C112.275 14.4077 111.873 14.4754 111.446 14.6108C111.018 14.742 110.712 14.8436 110.525 14.9155H110.316V13.1953C110.557 13.1318 110.949 13.0578 111.49 12.9731C112.036 12.8843 112.582 12.8398 113.128 12.8398C114.427 12.8398 115.364 13.0409 115.94 13.4429C116.52 13.8407 116.81 14.467 116.81 15.3218V20.1714H114.543V19.416ZM122.624 20.3618C122.002 20.3618 121.433 20.2878 120.917 20.1396C120.404 19.9915 119.958 19.763 119.577 19.4541C119.201 19.1452 118.909 18.7559 118.701 18.2861C118.494 17.8164 118.39 17.2663 118.39 16.6357C118.39 15.9714 118.5 15.3979 118.72 14.9155C118.944 14.4331 119.256 14.0332 119.653 13.7158C120.038 13.4154 120.483 13.1953 120.986 13.0557C121.49 12.916 122.013 12.8462 122.554 12.8462C123.041 12.8462 123.489 12.8991 123.9 13.0049C124.31 13.1107 124.693 13.2482 125.049 13.4175V15.3662H124.725C124.636 15.29 124.528 15.2012 124.401 15.0996C124.279 14.998 124.126 14.8986 123.944 14.8013C123.771 14.7082 123.58 14.632 123.373 14.5728C123.166 14.5093 122.924 14.4775 122.649 14.4775C122.04 14.4775 121.57 14.6722 121.24 15.0615C120.914 15.4466 120.751 15.9714 120.751 16.6357C120.751 17.3213 120.919 17.8418 121.253 18.1973C121.591 18.5527 122.07 18.7305 122.688 18.7305C122.975 18.7305 123.233 18.6987 123.462 18.6353C123.695 18.5675 123.887 18.4893 124.04 18.4004C124.183 18.3158 124.31 18.2269 124.42 18.1338C124.53 18.0407 124.632 17.9497 124.725 17.8608H125.049V19.8096C124.689 19.9788 124.312 20.1121 123.919 20.2095C123.53 20.311 123.098 20.3618 122.624 20.3618ZM130.279 20.3618C129.657 20.3618 129.088 20.2878 128.572 20.1396C128.06 19.9915 127.613 19.763 127.232 19.4541C126.856 19.1452 126.564 18.7559 126.356 18.2861C126.149 17.8164 126.045 17.2663 126.045 16.6357C126.045 15.9714 126.155 15.3979 126.375 14.9155C126.6 14.4331 126.911 14.0332 127.309 13.7158C127.694 13.4154 128.138 13.1953 128.642 13.0557C129.145 12.916 129.668 12.8462 130.209 12.8462C130.696 12.8462 131.145 12.8991 131.555 13.0049C131.966 13.1107 132.349 13.2482 132.704 13.4175V15.3662H132.38C132.292 15.29 132.184 15.2012 132.057 15.0996C131.934 14.998 131.782 14.8986 131.6 14.8013C131.426 14.7082 131.236 14.632 131.028 14.5728C130.821 14.5093 130.58 14.4775 130.305 14.4775C129.695 14.4775 129.226 14.6722 128.896 15.0615C128.57 15.4466 128.407 15.9714 128.407 16.6357C128.407 17.3213 128.574 17.8418 128.908 18.1973C129.247 18.5527 129.725 18.7305 130.343 18.7305C130.631 18.7305 130.889 18.6987 131.117 18.6353C131.35 18.5675 131.542 18.4893 131.695 18.4004C131.839 18.3158 131.966 18.2269 132.076 18.1338C132.186 18.0407 132.287 17.9497 132.38 17.8608H132.704V19.8096C132.344 19.9788 131.968 20.1121 131.574 20.2095C131.185 20.311 130.753 20.3618 130.279 20.3618ZM141.324 20.1714H139.039V19.3843C138.616 19.7059 138.229 19.9513 137.877 20.1206C137.526 20.2856 137.107 20.3682 136.621 20.3682C135.833 20.3682 135.226 20.1418 134.799 19.689C134.376 19.2362 134.164 18.5675 134.164 17.6831V13.043H136.462V16.5786C136.462 16.9383 136.472 17.2388 136.494 17.48C136.519 17.717 136.574 17.9137 136.659 18.0703C136.739 18.2269 136.86 18.3411 137.021 18.4131C137.186 18.485 137.414 18.521 137.706 18.521C137.901 18.521 138.117 18.485 138.354 18.4131C138.59 18.3411 138.819 18.2354 139.039 18.0957V13.043H141.324V20.1714ZM150.509 17.0293H145.279C145.313 17.5879 145.524 18.0153 145.914 18.3115C146.307 18.6077 146.885 18.7559 147.646 18.7559C148.129 18.7559 148.597 18.6691 149.049 18.4956C149.502 18.3221 149.86 18.1359 150.122 17.937H150.376V19.7715C149.86 19.9788 149.373 20.1291 148.916 20.2222C148.459 20.3153 147.953 20.3618 147.399 20.3618C145.969 20.3618 144.873 20.0402 144.111 19.397C143.349 18.7537 142.968 17.8376 142.968 16.6484C142.968 15.472 143.328 14.541 144.047 13.8555C144.771 13.1657 145.761 12.8208 147.018 12.8208C148.178 12.8208 149.049 13.1149 149.633 13.7031C150.217 14.2871 150.509 15.1292 150.509 16.2295V17.0293ZM148.237 15.6899C148.224 15.2118 148.106 14.8521 147.881 14.6108C147.657 14.3696 147.308 14.249 146.834 14.249C146.394 14.249 146.032 14.3633 145.749 14.5918C145.465 14.8203 145.306 15.1864 145.272 15.6899H148.237ZM154.407 20.1714H152.122V13.043H154.407V20.1714ZM154.47 12.0273H152.058V10.2944H154.47V12.0273ZM158.85 20.1714H156.565V10.2944H158.85V20.1714Z" fill="white"/>
<rect x="1" y="1" width="168" height="32.1306" rx="9" stroke="white" stroke-width="2"/>
</svg>
