<svg width="86" height="33" viewBox="0 0 86 33" fill="none" xmlns="http://www.w3.org/2000/svg">
<path d="M14.2744 18.7402C14.2744 19.4766 13.9443 20.0711 13.2842 20.5239C12.624 20.9725 11.7205 21.1968 10.5737 21.1968C9.93896 21.1968 9.36344 21.1375 8.84717 21.019C8.33089 20.9006 7.91618 20.7694 7.60303 20.6255V18.7466H7.8125C7.92676 18.827 8.05794 18.9159 8.20605 19.0132C8.3584 19.1063 8.5721 19.2078 8.84717 19.3179C9.08415 19.4152 9.35286 19.4998 9.65332 19.5718C9.95378 19.6395 10.2754 19.6733 10.6182 19.6733C11.0667 19.6733 11.3989 19.6247 11.6147 19.5273C11.8306 19.4258 11.9385 19.2777 11.9385 19.083C11.9385 18.9095 11.875 18.7847 11.748 18.7085C11.6211 18.6281 11.3799 18.5519 11.0244 18.48C10.8551 18.4419 10.6245 18.4017 10.3325 18.3594C10.0448 18.3128 9.78239 18.2578 9.54541 18.1943C8.89795 18.0251 8.41764 17.7627 8.10449 17.4072C7.79134 17.0475 7.63477 16.6011 7.63477 16.0679C7.63477 15.3823 7.9585 14.8132 8.60596 14.3604C9.25765 13.9033 10.1463 13.6748 11.272 13.6748C11.8052 13.6748 12.3151 13.7298 12.8018 13.8398C13.2926 13.9456 13.6756 14.0599 13.9507 14.1826V15.9854H13.7539C13.4154 15.7526 13.0282 15.5643 12.5923 15.4204C12.1606 15.2723 11.7227 15.1982 11.2783 15.1982C10.9102 15.1982 10.5991 15.249 10.3452 15.3506C10.0955 15.4521 9.9707 15.596 9.9707 15.7822C9.9707 15.9515 10.0278 16.0806 10.1421 16.1694C10.2563 16.2583 10.5251 16.3472 10.9482 16.436C11.181 16.4826 11.4307 16.5291 11.6973 16.5757C11.9681 16.618 12.2389 16.673 12.5098 16.7407C13.1107 16.8973 13.555 17.1449 13.8428 17.4834C14.1305 17.8177 14.2744 18.2367 14.2744 18.7402ZM18.832 11.123L16.9849 14.8618H15.4995L16.4961 11.123H18.832ZM24.4307 19.1401V17.6548C24.1217 17.6802 23.7874 17.7161 23.4277 17.7627C23.068 17.805 22.7951 17.8558 22.6089 17.915C22.3804 17.987 22.2048 18.0928 22.082 18.2324C21.9635 18.3678 21.9043 18.5477 21.9043 18.772C21.9043 18.9201 21.917 19.0407 21.9424 19.1338C21.9678 19.2269 22.0312 19.3158 22.1328 19.4004C22.2301 19.485 22.3465 19.5485 22.4819 19.5908C22.6174 19.6289 22.8289 19.6479 23.1167 19.6479C23.3452 19.6479 23.5758 19.6014 23.8086 19.5083C24.0456 19.4152 24.2529 19.2925 24.4307 19.1401ZM24.4307 20.2446C24.3079 20.3377 24.1556 20.4499 23.9736 20.5811C23.7917 20.7122 23.6203 20.8159 23.4595 20.8921C23.2352 20.9937 23.0024 21.0677 22.7612 21.1143C22.52 21.165 22.2555 21.1904 21.9678 21.1904C21.2907 21.1904 20.7236 20.981 20.2666 20.562C19.8096 20.1431 19.5811 19.6077 19.5811 18.9561C19.5811 18.4355 19.6974 18.0103 19.9302 17.6802C20.1629 17.3501 20.493 17.0898 20.9204 16.8994C21.3436 16.709 21.8683 16.5736 22.4946 16.4932C23.1209 16.4128 23.7705 16.3535 24.4434 16.3154V16.2773C24.4434 15.8838 24.2826 15.613 23.9609 15.4648C23.6393 15.3125 23.1654 15.2363 22.5391 15.2363C22.1624 15.2363 21.7604 15.304 21.333 15.4395C20.9056 15.5706 20.5988 15.6722 20.4126 15.7441H20.2031V14.0239C20.4443 13.9604 20.8358 13.8864 21.3774 13.8018C21.9233 13.7129 22.4692 13.6685 23.0151 13.6685C24.3143 13.6685 25.2516 13.8695 25.8271 14.2715C26.4069 14.6693 26.6968 15.2956 26.6968 16.1504V21H24.4307V20.2446ZM36.2373 17.3374C36.2373 18.4588 35.9263 19.3729 35.3042 20.0796C34.6864 20.7863 33.9141 21.1396 32.9873 21.1396C32.5895 21.1396 32.2404 21.0973 31.9399 21.0127C31.6395 20.9281 31.3538 20.8053 31.083 20.6445L30.9878 21H28.7979V11.123H31.083V14.6143C31.4342 14.335 31.7918 14.1086 32.1558 13.9351C32.5239 13.7616 32.9471 13.6748 33.4253 13.6748C34.3267 13.6748 35.0207 14.0007 35.5073 14.6523C35.994 15.2998 36.2373 16.1948 36.2373 17.3374ZM33.8823 17.3818C33.8823 16.7471 33.7744 16.2583 33.5586 15.9155C33.3428 15.5728 32.9577 15.4014 32.4033 15.4014C32.1875 15.4014 31.9653 15.4352 31.7368 15.5029C31.5083 15.5664 31.2904 15.6595 31.083 15.7822V19.3623C31.248 19.4215 31.4046 19.4618 31.5527 19.4829C31.7008 19.5041 31.8786 19.5146 32.0859 19.5146C32.6911 19.5146 33.1418 19.3369 33.438 18.9814C33.7342 18.626 33.8823 18.0928 33.8823 17.3818ZM45.1748 17.439C45.1748 18.6112 44.832 19.5358 44.1465 20.2129C43.4652 20.8857 42.5067 21.2222 41.271 21.2222C40.0353 21.2222 39.0747 20.8857 38.3892 20.2129C37.7078 19.5358 37.3672 18.6112 37.3672 17.439C37.3672 16.2583 37.71 15.3315 38.3955 14.6587C39.0853 13.9858 40.0438 13.6494 41.271 13.6494C42.5151 13.6494 43.4757 13.988 44.1528 14.665C44.8341 15.3421 45.1748 16.2668 45.1748 17.439ZM42.3628 19.1719C42.5109 18.9899 42.6209 18.772 42.6929 18.5181C42.769 18.2599 42.8071 17.9045 42.8071 17.4517C42.8071 17.0327 42.769 16.6815 42.6929 16.3979C42.6167 16.1144 42.5109 15.888 42.3755 15.7188C42.2401 15.5452 42.0771 15.4225 41.8867 15.3506C41.6963 15.2786 41.491 15.2427 41.271 15.2427C41.0509 15.2427 40.8542 15.2723 40.6807 15.3315C40.5114 15.3908 40.3485 15.5093 40.1919 15.687C40.0522 15.8521 39.9401 16.0785 39.8555 16.3662C39.7751 16.654 39.7349 17.0158 39.7349 17.4517C39.7349 17.841 39.7708 18.1795 39.8428 18.4673C39.9147 18.7508 40.0205 18.9793 40.1602 19.1528C40.2956 19.3179 40.4564 19.4385 40.6426 19.5146C40.833 19.5908 41.0488 19.6289 41.29 19.6289C41.4974 19.6289 41.6942 19.5951 41.8804 19.5273C42.0708 19.4554 42.2316 19.3369 42.3628 19.1719ZM53.9727 21H51.6748V17.4644C51.6748 17.1766 51.66 16.891 51.6304 16.6074C51.6007 16.3197 51.55 16.1081 51.478 15.9727C51.3934 15.8161 51.2686 15.7018 51.1035 15.6299C50.9427 15.5579 50.7163 15.522 50.4243 15.522C50.217 15.522 50.0054 15.5558 49.7896 15.6235C49.578 15.6912 49.3473 15.7992 49.0977 15.9473V21H46.8125V13.8716H49.0977V14.6587C49.5039 14.3413 49.8932 14.098 50.2656 13.9287C50.6423 13.7594 51.0591 13.6748 51.5161 13.6748C52.2863 13.6748 52.8872 13.8991 53.3188 14.3477C53.7547 14.7962 53.9727 15.467 53.9727 16.3599V21ZM63.2402 21H60.9424V17.4644C60.9424 17.1766 60.9276 16.891 60.8979 16.6074C60.8683 16.3197 60.8175 16.1081 60.7456 15.9727C60.661 15.8161 60.5361 15.7018 60.3711 15.6299C60.2103 15.5579 59.9839 15.522 59.6919 15.522C59.4845 15.522 59.2729 15.5558 59.0571 15.6235C58.8455 15.6912 58.6149 15.7992 58.3652 15.9473V21H56.0801V13.8716H58.3652V14.6587C58.7715 14.3413 59.1608 14.098 59.5332 13.9287C59.9098 13.7594 60.3267 13.6748 60.7837 13.6748C61.5539 13.6748 62.1548 13.8991 62.5864 14.3477C63.0223 14.7962 63.2402 15.467 63.2402 16.3599V21ZM72.3682 17.8579H67.1377C67.1715 18.4165 67.3831 18.8439 67.7725 19.1401C68.166 19.4364 68.7437 19.5845 69.5054 19.5845C69.9878 19.5845 70.4554 19.4977 70.9082 19.3242C71.361 19.1507 71.7186 18.9645 71.981 18.7656H72.2349V20.6001C71.7186 20.8075 71.2319 20.9577 70.7749 21.0508C70.3179 21.1439 69.8122 21.1904 69.2578 21.1904C67.8275 21.1904 66.7314 20.8688 65.9697 20.2256C65.208 19.5824 64.8271 18.6662 64.8271 17.4771C64.8271 16.3006 65.1868 15.3696 65.9062 14.6841C66.6299 13.9943 67.6201 13.6494 68.877 13.6494C70.0365 13.6494 70.9082 13.9435 71.4922 14.5317C72.0762 15.1157 72.3682 15.9578 72.3682 17.0581V17.8579ZM70.0957 16.5186C70.083 16.0404 69.9645 15.6807 69.7402 15.4395C69.516 15.1982 69.1668 15.0776 68.6929 15.0776C68.2528 15.0776 67.891 15.1919 67.6074 15.4204C67.3239 15.6489 67.1652 16.015 67.1313 16.5186H70.0957ZM79.1475 16.0488H78.9443C78.847 16.015 78.6904 15.9896 78.4746 15.9727C78.2588 15.9557 78.0789 15.9473 77.9351 15.9473C77.6092 15.9473 77.3215 15.9684 77.0718 16.0107C76.8221 16.0531 76.5534 16.125 76.2656 16.2266V21H73.9805V13.8716H76.2656V14.9189C76.7692 14.4873 77.2072 14.2017 77.5796 14.062C77.952 13.9181 78.2948 13.8462 78.6079 13.8462C78.6883 13.8462 78.7793 13.8483 78.8809 13.8525C78.9824 13.8568 79.0713 13.8631 79.1475 13.8716V16.0488Z" fill="white"/>
<rect x="1" y="1" width="84" height="31" rx="9" stroke="white" stroke-width="2"/>
</svg>
