<svg width="86" height="33" viewBox="0 0 86 33" fill="none" xmlns="http:/www.w3.org/2000/svg">
<path d="M12.7168 17.8662C12.7168 18.1852 12.6598 18.4847 12.5459 18.7646C12.432 19.0413 12.2627 19.2757 12.0381 19.4678C11.8005 19.6729 11.514 19.8324 11.1787 19.9463C10.8434 20.057 10.4284 20.1123 9.93359 20.1123C9.59831 20.1123 9.28255 20.0993 8.98633 20.0732C8.6901 20.0505 8.42969 20.0163 8.20508 19.9707V18.4961H8.38086C8.53711 18.5547 8.69987 18.61 8.86914 18.6621C9.03841 18.7109 9.25488 18.7354 9.51855 18.7354C9.86035 18.7354 10.1224 18.6898 10.3047 18.5986C10.4902 18.5075 10.6221 18.3805 10.7002 18.2178C10.7751 18.0583 10.8174 17.8841 10.8271 17.6953C10.8369 17.5033 10.8418 17.2591 10.8418 16.9629V14.0674H9.17676V12.7295H12.7168V17.8662ZM19.7871 17.583H15.7637C15.7897 18.0127 15.9525 18.3415 16.252 18.5693C16.5547 18.7972 16.999 18.9111 17.585 18.9111C17.9561 18.9111 18.3158 18.8444 18.6641 18.7109C19.0124 18.5775 19.2874 18.4342 19.4893 18.2812H19.6846V19.6924C19.2874 19.8519 18.9131 19.9674 18.5615 20.0391C18.21 20.1107 17.821 20.1465 17.3945 20.1465C16.2943 20.1465 15.4512 19.8991 14.8652 19.4043C14.2793 18.9095 13.9863 18.2048 13.9863 17.29C13.9863 16.3851 14.263 15.6689 14.8164 15.1416C15.373 14.611 16.1348 14.3457 17.1016 14.3457C17.9935 14.3457 18.6641 14.5719 19.1133 15.0244C19.5625 15.4736 19.7871 16.1214 19.7871 16.9678V17.583ZM18.0391 16.5527C18.0293 16.1849 17.9382 15.9082 17.7656 15.7227C17.5931 15.5371 17.3245 15.4443 16.96 15.4443C16.6214 15.4443 16.3431 15.5322 16.125 15.708C15.9069 15.8838 15.7848 16.1654 15.7588 16.5527H18.0391ZM29.8066 16.1133V20H28.0391V17.2607C28.0391 16.9938 28.0326 16.7676 28.0195 16.582C28.0065 16.3932 27.9707 16.2402 27.9121 16.123C27.8535 16.0059 27.764 15.9212 27.6436 15.8691C27.5264 15.8138 27.3604 15.7861 27.1455 15.7861C26.973 15.7861 26.8053 15.8219 26.6426 15.8936C26.4798 15.9619 26.3333 16.0352 26.2031 16.1133V20H24.4453V14.5166H26.2031V15.1221C26.5059 14.8844 26.7956 14.6989 27.0723 14.5654C27.349 14.432 27.6549 14.3652 27.9902 14.3652C28.3516 14.3652 28.6706 14.4466 28.9473 14.6094C29.224 14.7689 29.4404 15.0049 29.5967 15.3174C29.9482 15.0212 30.29 14.7884 30.6221 14.6191C30.9541 14.4499 31.2796 14.3652 31.5986 14.3652C32.1911 14.3652 32.6403 14.5426 32.9463 14.8975C33.2555 15.2523 33.4102 15.7633 33.4102 16.4307V20H31.6426V17.2607C31.6426 16.9906 31.6361 16.7627 31.623 16.5771C31.6133 16.3916 31.5791 16.2402 31.5205 16.123C31.4652 16.0059 31.3773 15.9212 31.2568 15.8691C31.1364 15.8138 30.9671 15.7861 30.749 15.7861C30.6025 15.7861 30.4593 15.8122 30.3193 15.8643C30.1794 15.9131 30.0085 15.9961 29.8066 16.1133ZM37.3652 12.4023L35.9443 15.2783H34.8018L35.5684 12.4023H37.3652ZM41.6719 18.5693V17.4268C41.4342 17.4463 41.1771 17.474 40.9004 17.5098C40.6237 17.5423 40.4137 17.5814 40.2705 17.627C40.0947 17.6823 39.9596 17.7637 39.8652 17.8711C39.7741 17.9753 39.7285 18.1136 39.7285 18.2861C39.7285 18.4001 39.7383 18.4928 39.7578 18.5645C39.7773 18.6361 39.8262 18.7044 39.9043 18.7695C39.9792 18.8346 40.0687 18.8835 40.1729 18.916C40.277 18.9453 40.4398 18.96 40.6611 18.96C40.8369 18.96 41.0143 18.9242 41.1934 18.8525C41.3757 18.7809 41.5352 18.6865 41.6719 18.5693ZM41.6719 19.4189C41.5775 19.4906 41.4603 19.5768 41.3203 19.6777C41.1803 19.7786 41.0485 19.8584 40.9248 19.917C40.7523 19.9951 40.5732 20.0521 40.3877 20.0879C40.2021 20.127 39.9987 20.1465 39.7773 20.1465C39.2565 20.1465 38.8203 19.9854 38.4688 19.6631C38.1172 19.3408 37.9414 18.929 37.9414 18.4277C37.9414 18.0273 38.0309 17.7002 38.21 17.4463C38.389 17.1924 38.6429 16.9922 38.9717 16.8457C39.2972 16.6992 39.7008 16.5951 40.1826 16.5332C40.6644 16.4714 41.1641 16.4258 41.6816 16.3965V16.3672C41.6816 16.0645 41.5579 15.8561 41.3105 15.7422C41.0632 15.625 40.6986 15.5664 40.2168 15.5664C39.9271 15.5664 39.6178 15.6185 39.2891 15.7227C38.9603 15.8236 38.7243 15.9017 38.5811 15.957H38.4199V14.6338C38.6055 14.585 38.9066 14.528 39.3232 14.4629C39.7432 14.3945 40.1631 14.3604 40.583 14.3604C41.5824 14.3604 42.3034 14.515 42.7461 14.8242C43.1921 15.1302 43.415 15.612 43.415 16.2695V20H41.6719V19.4189ZM50.7539 17.1826C50.7539 18.0452 50.5146 18.7484 50.0361 19.292C49.5609 19.8356 48.9668 20.1074 48.2539 20.1074C47.9479 20.1074 47.6794 20.0749 47.4482 20.0098C47.2171 19.9447 46.9974 19.8503 46.7891 19.7266L46.7158 20H45.0312V12.4023H46.7891V15.0879C47.0592 14.873 47.3343 14.6989 47.6143 14.5654C47.8975 14.432 48.223 14.3652 48.5908 14.3652C49.2842 14.3652 49.818 14.6159 50.1924 15.1172C50.5667 15.6152 50.7539 16.3037 50.7539 17.1826ZM48.9424 17.2168C48.9424 16.7285 48.8594 16.3525 48.6934 16.0889C48.5273 15.8252 48.2311 15.6934 47.8047 15.6934C47.6387 15.6934 47.4678 15.7194 47.292 15.7715C47.1162 15.8203 46.9486 15.8919 46.7891 15.9863V18.7402C46.916 18.7858 47.0365 18.8167 47.1504 18.833C47.2643 18.8493 47.401 18.8574 47.5605 18.8574C48.026 18.8574 48.3727 18.7207 48.6006 18.4473C48.8285 18.1738 48.9424 17.7637 48.9424 17.2168ZM57.6289 17.2607C57.6289 18.1624 57.3652 18.8737 56.8379 19.3945C56.3138 19.9121 55.5765 20.1709 54.626 20.1709C53.6755 20.1709 52.9365 19.9121 52.4092 19.3945C51.8851 18.8737 51.623 18.1624 51.623 17.2607C51.623 16.3525 51.8867 15.6396 52.4141 15.1221C52.9447 14.6045 53.682 14.3457 54.626 14.3457C55.583 14.3457 56.3219 14.6061 56.8428 15.127C57.3669 15.6478 57.6289 16.359 57.6289 17.2607ZM55.4658 18.5938C55.5798 18.4538 55.6644 18.2861 55.7197 18.0908C55.7783 17.8923 55.8076 17.6188 55.8076 17.2705C55.8076 16.9482 55.7783 16.6781 55.7197 16.46C55.6611 16.2419 55.5798 16.0677 55.4756 15.9375C55.3714 15.804 55.2461 15.7096 55.0996 15.6543C54.9531 15.599 54.7952 15.5713 54.626 15.5713C54.4567 15.5713 54.3053 15.5941 54.1719 15.6396C54.0417 15.6852 53.9163 15.7764 53.7959 15.9131C53.6885 16.04 53.6022 16.2142 53.5371 16.4355C53.4753 16.6569 53.4443 16.9352 53.4443 17.2705C53.4443 17.57 53.472 17.8304 53.5273 18.0518C53.5827 18.2699 53.6641 18.4456 53.7715 18.5791C53.8757 18.7061 53.9993 18.7988 54.1426 18.8574C54.2891 18.916 54.4551 18.9453 54.6406 18.9453C54.8001 18.9453 54.9515 18.9193 55.0947 18.8672C55.2412 18.8118 55.3649 18.7207 55.4658 18.5938ZM64.3965 20H62.6289V17.2803C62.6289 17.0589 62.6175 16.8392 62.5947 16.6211C62.5719 16.3997 62.5329 16.237 62.4775 16.1328C62.4124 16.0124 62.3164 15.9245 62.1895 15.8691C62.0658 15.8138 61.8916 15.7861 61.667 15.7861C61.5075 15.7861 61.3447 15.8122 61.1787 15.8643C61.016 15.9163 60.8385 15.9993 60.6465 16.1133V20H58.8887V14.5166H60.6465V15.1221C60.959 14.8779 61.2585 14.6908 61.5449 14.5605C61.8346 14.4303 62.1553 14.3652 62.5068 14.3652C63.0993 14.3652 63.5615 14.5378 63.8936 14.8828C64.2288 15.2279 64.3965 15.7438 64.3965 16.4307V20ZM71.5254 20H69.7578V17.2803C69.7578 17.0589 69.7464 16.8392 69.7236 16.6211C69.7008 16.3997 69.6618 16.237 69.6064 16.1328C69.5413 16.0124 69.4453 15.9245 69.3184 15.8691C69.1947 15.8138 69.0205 15.7861 68.7959 15.7861C68.6364 15.7861 68.4736 15.8122 68.3076 15.8643C68.1449 15.9163 67.9674 15.9993 67.7754 16.1133V20H66.0176V14.5166H67.7754V15.1221C68.0879 14.8779 68.3874 14.6908 68.6738 14.5605C68.9635 14.4303 69.2842 14.3652 69.6357 14.3652C70.2282 14.3652 70.6904 14.5378 71.0225 14.8828C71.3577 15.2279 71.5254 15.7438 71.5254 16.4307V20ZM78.5469 17.583H74.5234C74.5495 18.0127 74.7122 18.3415 75.0117 18.5693C75.3145 18.7972 75.7588 18.9111 76.3447 18.9111C76.7158 18.9111 77.0755 18.8444 77.4238 18.7109C77.7721 18.5775 78.0472 18.4342 78.249 18.2812H78.4443V19.6924C78.0472 19.8519 77.6729 19.9674 77.3213 20.0391C76.9697 20.1107 76.5807 20.1465 76.1543 20.1465C75.054 20.1465 74.2109 19.8991 73.625 19.4043C73.0391 18.9095 72.7461 18.2048 72.7461 17.29C72.7461 16.3851 73.0228 15.6689 73.5762 15.1416C74.1328 14.611 74.8945 14.3457 75.8613 14.3457C76.7533 14.3457 77.4238 14.5719 77.873 15.0244C78.3223 15.4736 78.5469 16.1214 78.5469 16.9678V17.583ZM76.7988 16.5527C76.7891 16.1849 76.6979 15.9082 76.5254 15.7227C76.3529 15.5371 76.0843 15.4443 75.7197 15.4443C75.3812 15.4443 75.1029 15.5322 74.8848 15.708C74.6667 15.8838 74.5446 16.1654 74.5186 16.5527H76.7988Z" fill="white"/>
<rect x="1" y="1" width="84" height="31" rx="9" stroke="white" stroke-width="2"/>
</svg>
