<svg width="32" height="40" viewBox="0 0 32 40" fill="none" xmlns="http:/www.w3.org/2000/svg">
<path d="M16 3.90594L18.8471 10.7511L19.1989 11.5971L20.1122 11.6703L27.5021 12.2627L21.8718 17.0857L21.176 17.6818L21.3885 18.573L23.1087 25.7843L16.7819 21.9199L16 21.4423L15.2181 21.9199L8.89129 25.7843L10.6115 18.573L10.824 17.6818L10.1282 17.0857L4.49786 12.2627L11.8878 11.6703L12.8011 11.5971L13.1529 10.7511L16 3.90594Z" stroke="white" stroke-width="3"/>
<path d="M8.5498 39H6.68457V34.1318L5.33691 37.291H4.04297L2.69531 34.1318V39H0.927734V31.7295H3.10547L4.74121 35.377L6.37207 31.7295H8.5498V39ZM15.7129 36.583H11.6895C11.7155 37.0127 11.8783 37.3415 12.1777 37.5693C12.4805 37.7972 12.9248 37.9111 13.5107 37.9111C13.8818 37.9111 14.2415 37.8444 14.5898 37.7109C14.9382 37.5775 15.2132 37.4342 15.415 37.2812H15.6104V38.6924C15.2132 38.8519 14.8389 38.9674 14.4873 39.0391C14.1357 39.1107 13.7467 39.1465 13.3203 39.1465C12.2201 39.1465 11.377 38.8991 10.791 38.4043C10.2051 37.9095 9.91211 37.2048 9.91211 36.29C9.91211 35.3851 10.1888 34.6689 10.7422 34.1416C11.2988 33.611 12.0605 33.3457 13.0273 33.3457C13.9193 33.3457 14.5898 33.5719 15.0391 34.0244C15.4883 34.4736 15.7129 35.1214 15.7129 35.9678V36.583ZM13.9648 35.5527C13.9551 35.1849 13.8639 34.9082 13.6914 34.7227C13.5189 34.5371 13.2503 34.4443 12.8857 34.4443C12.5472 34.4443 12.2689 34.5322 12.0508 34.708C11.8327 34.8838 11.7106 35.1654 11.6846 35.5527H13.9648ZM22.4609 39H20.6934V36.2803C20.6934 36.0589 20.682 35.8392 20.6592 35.6211C20.6364 35.3997 20.5973 35.237 20.542 35.1328C20.4769 35.0124 20.3809 34.9245 20.2539 34.8691C20.1302 34.8138 19.9561 34.7861 19.7314 34.7861C19.5719 34.7861 19.4092 34.8122 19.2432 34.8643C19.0804 34.9163 18.903 34.9993 18.7109 35.1133V39H16.9531V33.5166H18.7109V34.1221C19.0234 33.8779 19.3229 33.6908 19.6094 33.5605C19.8991 33.4303 20.2197 33.3652 20.5713 33.3652C21.1637 33.3652 21.626 33.5378 21.958 33.8828C22.2933 34.2279 22.4609 34.7438 22.4609 35.4307V39ZM29.5459 39H27.7881V38.3945C27.4626 38.6419 27.1647 38.8307 26.8945 38.9609C26.6243 39.0879 26.3021 39.1514 25.9277 39.1514C25.3223 39.1514 24.8551 38.9772 24.5264 38.6289C24.2008 38.2806 24.0381 37.7663 24.0381 37.0859V33.5166H25.8057V36.2363C25.8057 36.513 25.8138 36.7441 25.8301 36.9297C25.8496 37.112 25.8919 37.2633 25.957 37.3838C26.0189 37.5042 26.1117 37.5921 26.2354 37.6475C26.3623 37.7028 26.5381 37.7305 26.7627 37.7305C26.9124 37.7305 27.0785 37.7028 27.2607 37.6475C27.443 37.5921 27.6188 37.5107 27.7881 37.4033V33.5166H29.5459V39Z" fill="white"/>
</svg>
