<svg width="32" height="32" viewBox="0 0 32 32" fill="none" xmlns="http://www.w3.org/2000/svg">
<path d="M12 24V6.66667L28 4V21.3333" stroke="white" stroke-width="2" stroke-linecap="round" stroke-linejoin="round"/>
<path d="M8 28C10.2091 28 12 26.2091 12 24C12 21.7909 10.2091 20 8 20C5.79086 20 4 21.7909 4 24C4 26.2091 5.79086 28 8 28Z" stroke="white" stroke-width="2" stroke-linecap="round" stroke-linejoin="round"/>
<path d="M24 25.3335C26.2091 25.3335 28 23.5426 28 21.3335C28 19.1244 26.2091 17.3335 24 17.3335C21.7909 17.3335 20 19.1244 20 21.3335C20 23.5426 21.7909 25.3335 24 25.3335Z" stroke="white" stroke-width="2" stroke-linecap="round" stroke-linejoin="round"/>
</svg>
